# xmcd CD database file
#
# Track frame offsets:
#	150
#	16951
#	33442
#	78533
#	101719
#	120410
#	156985
#	167032
#	212021
#
# Disc length: 3194 seconds
#
# Revision: 0
# Processed by: cddbd v1.4PL0 Copyright (c) Steve Scherf et al.
# Submitted via: CDex 1.51
#
DISCID=6d0c7809
DTITLE=James Harry And Juliana  (Llewellyn) -  Moonchild
DYEAR=1996
DGENRE=New Age
TTITLE0=James Harry/Juliana - Moonchild, pt 1
TTITLE1=James Harry/Juliana - Can you Hear Me?
TTITLE2=James Harry/Juliana - Through the Eyes of a Child
TTITLE3=James Harry/Juliana - A Trusting Gaze
TTITLE4=James Harry/Juliana - Moonchild, pt 2
TTITLE5=James Harry/Juliana - Lux
TTITLE6=James Harry/Juliana - Through the Storm
TTITLE7=James Harry/Juliana - Feel the Spirit
TTITLE8=James Harry/Juliana - Moonchild, pt 3
EXTD=YEAR: 1996
EXTT0=
EXTT1=
EXTT2=
EXTT3=
EXTT4=
EXTT5=
EXTT6=
EXTT7=
EXTT8=
PLAYORDER=
